<svg width="159" height="9" viewBox="0 0 159 9" fill="none" xmlns="http://www.w3.org/2000/svg">
<g clip-path="url(#clip0_1_5)">
<path d="M1.92627 0H15.0503C15.2919 0 15.5297 0.04625 15.7661 0.13875C16.0013 0.23125 16.2082 0.36125 16.3855 0.52875C16.5628 0.69625 16.7067 0.9025 16.8147 1.15C16.9226 1.3975 16.9766 1.67 16.9766 1.96625V3.32125H14.936V2.80125C14.936 2.55375 14.8756 2.3525 14.7548 2.19875C14.634 2.04375 14.4592 1.96625 14.2305 1.96625H2.74741C2.49297 1.96625 2.31178 2.04375 2.20384 2.19875C2.09589 2.35375 2.04192 2.555 2.04192 2.80125V6.1975C2.04192 6.445 2.10489 6.64625 2.23211 6.80125C2.35933 6.95625 2.51867 7.03375 2.70885 7.03375H14.2125C14.4027 7.03375 14.571 6.95625 14.7175 6.80125C14.864 6.64625 14.9373 6.44625 14.9373 6.1975V5.66H16.9779V7.03375C16.9779 7.355 16.9239 7.63625 16.816 7.8775C16.708 8.11875 16.5641 8.3225 16.3868 8.49C16.2082 8.6575 16.0025 8.78375 15.7674 8.87C15.5322 8.95625 15.2932 9 15.0516 9H1.92627C1.67183 9 1.43024 8.95625 1.20151 8.87C0.972772 8.78375 0.768451 8.65625 0.591116 8.49C0.412496 8.3225 0.269857 8.11875 0.161914 7.8775C0.0539715 7.63625 0 7.355 0 7.03375V1.9675C0 1.65875 0.0539715 1.38 0.161914 1.1325C0.269857 0.885 0.412496 0.6775 0.591116 0.51125C0.768451 0.34375 0.972772 0.2175 1.20151 0.13125C1.43024 0.045 1.67183 0.00125 1.92627 0.00125V0Z" fill="white"/>
<path d="M37.3431 9H35.3025V5.92375H22.4072V9H20.3665V1.9675C20.3665 1.65875 20.4205 1.38 20.5284 1.1325C20.6364 0.884999 20.779 0.677499 20.9576 0.511249C21.135 0.343749 21.3393 0.217499 21.568 0.131249C21.7968 0.0449993 22.0383 0.00124931 22.2928 0.00124931H35.4168C35.6584 0.00124931 35.8962 0.0474993 36.1326 0.139999C36.3678 0.232499 36.5747 0.362499 36.752 0.529999C36.9293 0.697499 37.0733 0.903749 37.1812 1.15125C37.2891 1.39875 37.3431 1.67125 37.3431 1.9675V9ZM22.4072 2.8025V4.0475H35.3025V2.8025C35.3025 2.555 35.2421 2.35375 35.1213 2.2C35.0005 2.045 34.8257 1.9675 34.597 1.9675H23.1126C22.8582 1.9675 22.677 2.045 22.5691 2.2C22.4611 2.355 22.4072 2.55625 22.4072 2.8025Z" fill="white"/>
<path d="M119.222 9H117.181V5.92375H104.286V9H102.245V1.9675C102.245 1.65875 102.299 1.38 102.407 1.1325C102.515 0.884999 102.658 0.677499 102.836 0.511249C103.014 0.343749 103.218 0.217499 103.447 0.131249C103.675 0.0449993 103.917 0.00124931 104.171 0.00124931H117.295C117.537 0.00124931 117.775 0.0474993 118.011 0.139999C118.246 0.232499 118.453 0.362499 118.631 0.529999C118.808 0.697499 118.952 0.903749 119.06 1.15125C119.168 1.39875 119.222 1.67125 119.222 1.9675V9ZM104.284 2.8025V4.0475H117.18V2.8025C117.18 2.555 117.119 2.35375 116.999 2.2C116.878 2.045 116.703 1.9675 116.474 1.9675H104.99C104.736 1.9675 104.554 2.045 104.446 2.2C104.338 2.355 104.284 2.55625 104.284 2.8025Z" fill="white"/>
<path d="M40.823 7.0325H55.0355C55.2257 7.0325 55.394 6.97625 55.5405 6.865C55.687 6.75375 55.7603 6.575 55.7603 6.32625V6.15875C55.7603 5.89875 55.6999 5.72 55.5791 5.62125C55.4583 5.5225 55.2835 5.4725 55.0548 5.4725H42.7313C42.2224 5.4725 41.7778 5.3025 41.3961 4.9625C41.0145 4.6225 40.8243 4.13625 40.8243 3.50625V1.96625C40.8243 1.335 41.0145 0.85 41.3961 0.51C41.7778 0.17 42.2224 0 42.7313 0H57.8022V1.9675H43.5717C43.343 1.9675 43.1682 2.01375 43.0474 2.10625C42.9266 2.19875 42.8662 2.375 42.8662 2.635V2.8025C42.8662 3.05 42.9395 3.32 43.0859 3.43125C43.2324 3.5425 43.4008 3.59875 43.591 3.59875H55.8952C56.4041 3.59875 56.8487 3.77875 57.2303 4.13625C57.612 4.495 57.8022 4.9775 57.8022 5.58375V7.03375C57.8022 7.665 57.612 8.15 57.2303 8.49C56.8487 8.83 56.4041 9 55.8952 9H40.8243V7.0325H40.823Z" fill="white"/>
<path d="M63.3689 7.0325H78.3062V9H61.3283V0H78.3062V1.9675H63.3689V3.5975H76.9184V5.475H63.3689V7.03375V7.0325Z" fill="white"/>
<path d="M96.884 0C97.1255 0 97.3633 0.04625 97.5997 0.13875C97.8349 0.23125 98.0418 0.36125 98.2191 0.52875C98.3964 0.69625 98.5404 0.9025 98.6483 1.15C98.7563 1.3975 98.8102 1.67 98.8102 1.96625V3.24625C98.8102 3.53125 98.7344 3.78375 98.5815 4.0075C98.4286 4.23 98.2757 4.3975 98.124 4.50875C98.2769 4.595 98.4299 4.73125 98.5815 4.9175C98.7331 5.10375 98.8102 5.35125 98.8102 5.66V7.03375C98.8102 7.33125 98.7563 7.6025 98.6483 7.85C98.5404 8.0975 98.3964 8.305 98.2191 8.47125C98.0405 8.63875 97.8349 8.76875 97.5997 8.86125C97.3646 8.95375 97.1255 9 96.884 9H81.8323V0H96.884ZM83.873 1.9675V3.5975H96.0435C96.2337 3.5975 96.4021 3.55375 96.5486 3.4675C96.6951 3.38125 96.7683 3.21375 96.7683 2.96625V2.6725C96.7683 2.4125 96.7015 2.23 96.5678 2.125C96.4342 2.02 96.253 1.9675 96.0243 1.9675H83.873ZM83.873 5.38375V7.0325H96.0628C96.2916 7.0325 96.4663 6.99875 96.5871 6.93C96.7079 6.8625 96.7683 6.6975 96.7683 6.43875V6.12625C96.7683 5.87875 96.6925 5.69375 96.5396 5.57C96.3867 5.44625 96.2157 5.385 96.0243 5.385H83.873V5.38375Z" fill="white"/>
<path d="M124.489 0H137.613C137.855 0 138.092 0.04625 138.329 0.13875C138.564 0.23125 138.771 0.36125 138.948 0.52875C139.126 0.69625 139.27 0.9025 139.377 1.15C139.485 1.3975 139.539 1.67 139.539 1.96625V3.32125H137.499V2.80125C137.499 2.55375 137.438 2.3525 137.318 2.19875C137.197 2.04375 137.022 1.96625 136.793 1.96625H125.309C125.054 1.96625 124.873 2.04375 124.765 2.19875C124.657 2.35375 124.603 2.555 124.603 2.80125V6.1975C124.603 6.445 124.666 6.64625 124.794 6.80125C124.921 6.95625 125.08 7.03375 125.27 7.03375H136.774C136.965 7.03375 137.134 6.95625 137.279 6.80125C137.426 6.64625 137.499 6.44625 137.499 6.1975V5.66H139.539V7.03375C139.539 7.355 139.485 7.63625 139.377 7.8775C139.27 8.11875 139.126 8.3225 138.948 8.49C138.77 8.6575 138.564 8.78375 138.329 8.87C138.094 8.95625 137.855 9 137.613 9H124.489C124.235 9 123.993 8.95625 123.764 8.87C123.536 8.78375 123.331 8.65625 123.154 8.49C122.975 8.3225 122.833 8.11875 122.725 7.8775C122.617 7.63625 122.563 7.355 122.563 7.03375V1.9675C122.563 1.65875 122.617 1.38 122.725 1.1325C122.833 0.885 122.975 0.6775 123.154 0.51125C123.331 0.34375 123.536 0.2175 123.764 0.13125C123.993 0.045 124.235 0.00125 124.489 0.00125V0Z" fill="white"/>
<path d="M144.831 9H142.791V0H144.831V3.5075H151.936L155.978 0H159L153.911 4.49125L159 9H155.978L151.889 5.47375H144.831V9Z" fill="white"/>
</g>
<defs>
<clipPath id="clip0_1_5">
<rect width="159" height="9" fill="white"/>
</clipPath>
</defs>
</svg>
