<svg width="351" height="25" viewBox="0 0 351 25" fill="none" xmlns="http://www.w3.org/2000/svg">
<g clip-path="url(#clip0_339_68)">
<path d="M320.036 24.2933H308.142V0.438293H320.036V9.86134L335.365 0.438293H350.121L332.013 11.2857L350.713 24.2933H335.222L320.036 13.618V24.2933Z" fill="white"/>
<path d="M283.616 24.7472H281.981C279.338 24.7472 276.926 24.6011 274.746 24.3089C272.566 24.0167 270.726 23.6358 269.228 23.1663C267.742 22.6967 266.428 22.1227 265.283 21.4444C264.152 20.7662 263.253 20.0774 262.585 19.3783C261.931 18.6791 261.4 17.9225 260.991 17.1086C260.582 16.2842 260.31 15.5329 260.174 14.8546C260.037 14.1763 259.969 13.4771 259.969 12.7571V11.8179C259.969 11.2649 260.003 10.7326 260.072 10.2213C260.153 9.69958 260.296 9.12563 260.501 8.49951C260.719 7.87338 260.998 7.2838 261.339 6.73074C261.693 6.17768 262.163 5.60894 262.749 5.02458C263.348 4.44021 264.037 3.90799 264.813 3.42798C265.59 2.94796 266.537 2.49402 267.654 2.06618C268.771 1.6279 270.004 1.26267 271.353 0.970479C272.716 0.667856 274.303 0.433063 276.115 0.266099C277.927 0.0886996 279.883 0 281.981 0H283.616C286.218 0 288.596 0.125223 290.749 0.375669C292.915 0.626116 294.727 0.954824 296.185 1.3618C297.657 1.76877 298.951 2.25923 300.068 2.83317C301.199 3.39667 302.085 3.9706 302.725 4.555C303.379 5.12891 303.904 5.74461 304.299 6.40204C304.708 7.04901 304.973 7.62817 305.096 8.13951C305.232 8.64039 305.3 9.14127 305.3 9.64218V10.0648H292.956C292.888 9.88739 292.827 9.75173 292.772 9.65782C292.731 9.55349 292.602 9.36042 292.384 9.07866C292.179 8.78648 291.941 8.54127 291.669 8.34299C291.396 8.14472 290.987 7.91514 290.442 7.65426C289.911 7.38292 289.311 7.16901 288.644 7.0125C287.976 6.84553 287.124 6.70465 286.089 6.58986C285.067 6.46465 283.936 6.40204 282.696 6.40204C281.497 6.40204 280.4 6.45944 279.406 6.57423C278.425 6.68898 277.58 6.84553 276.872 7.0438C276.163 7.24208 275.536 7.48729 274.991 7.77947C274.446 8.06123 274.003 8.35863 273.663 8.67169C273.336 8.98475 273.063 9.33433 272.845 9.72042C272.627 10.1065 272.477 10.4822 272.396 10.8474C272.314 11.2023 272.273 11.5831 272.273 11.9901V12.3658C272.273 12.8249 272.341 13.2736 272.477 13.7119C272.614 14.1398 272.825 14.5833 273.111 15.0424C273.411 15.5015 273.826 15.9242 274.358 16.3103C274.902 16.686 275.543 17.0251 276.279 17.3277C277.028 17.6304 277.955 17.8704 279.058 18.0478C280.162 18.2147 281.388 18.2982 282.737 18.2982C283.991 18.2982 285.135 18.2356 286.171 18.1104C287.22 17.9747 288.078 17.813 288.746 17.6251C289.427 17.4373 290.034 17.2025 290.565 16.9208C291.11 16.639 291.519 16.3886 291.791 16.1694C292.064 15.9399 292.295 15.679 292.486 15.3868C292.69 15.0946 292.813 14.8911 292.854 14.7763C292.908 14.6615 292.956 14.5311 292.997 14.385H305.3V14.9015C305.3 15.4024 305.232 15.9138 305.096 16.4355C304.96 16.9573 304.687 17.5521 304.278 18.22C303.87 18.8774 303.338 19.5035 302.684 20.0983C302.03 20.6827 301.138 21.267 300.007 21.8514C298.89 22.4254 297.595 22.921 296.124 23.3384C294.666 23.7558 292.861 24.095 290.708 24.3559C288.569 24.6168 286.205 24.7472 283.616 24.7472Z" fill="white"/>
<path d="M243.272 14.4789L238.04 6.27683L232.931 14.4789H243.272ZM249.506 24.2933L247.074 20.4427H229.293L226.901 24.2933H214.843L230.253 0.438293H246.236L262.525 24.2933H249.506Z" fill="white"/>
<path d="M172.393 24.2933V0.438293H201.701C203.459 0.438293 205.012 0.542646 206.361 0.75135C207.723 0.949621 208.827 1.22094 209.672 1.5653C210.517 1.89923 211.212 2.30621 211.757 2.78623C212.302 3.25581 212.676 3.74106 212.88 4.24194C213.098 4.74282 213.208 5.28025 213.208 5.85419V6.21419C213.208 6.91338 213.03 7.55514 212.676 8.13951C212.322 8.71345 211.859 9.18303 211.286 9.54828C210.714 9.91349 210.142 10.2057 209.57 10.4248C208.997 10.6335 208.425 10.7901 207.853 10.8944C208.371 10.9883 208.868 11.1031 209.345 11.2388C209.822 11.3744 210.346 11.5518 210.918 11.771C211.491 11.9901 212.008 12.2614 212.472 12.5849C212.935 12.898 213.364 13.2632 213.76 13.6806C214.155 14.0876 214.461 14.5781 214.679 15.152C214.897 15.726 215.006 16.3468 215.006 17.0147V17.406C215.006 21.9975 210.626 24.2933 201.865 24.2933H172.393ZM198.104 5.85419H184.288V9.21954H198.104C200.216 9.21954 201.272 8.66648 201.272 7.56035V7.49775C201.272 6.40204 200.216 5.85419 198.104 5.85419ZM198.86 14.5729H184.288V18.6895H198.86C201.313 18.6895 202.539 18.006 202.539 16.639V16.5294C202.539 15.9242 202.273 15.4494 201.742 15.105C201.224 14.7502 200.264 14.5729 198.86 14.5729Z" fill="white"/>
<path d="M134.175 0.438293H168.633V6.27683H145.906V9.25085H168.163V15.0581H145.906V18.3295H168.96V24.2933H134.175V0.438293Z" fill="white"/>
<path d="M112.204 24.7472H108.382C95.7244 24.7472 89.3955 21.9245 89.3955 16.279V15.9659H102.455C102.482 16.279 102.544 16.566 102.639 16.8269C102.748 17.0773 102.966 17.3695 103.293 17.7034C103.634 18.0269 104.07 18.3034 104.601 18.533C105.133 18.7521 105.882 18.94 106.849 19.0965C107.817 19.2531 108.948 19.3313 110.242 19.3313H110.61C111.904 19.3313 113.022 19.2896 113.962 19.2061C114.902 19.1226 115.638 19.013 116.169 18.8774C116.714 18.7417 117.143 18.5748 117.456 18.3765C117.783 18.1678 117.995 17.9643 118.09 17.766C118.186 17.5677 118.233 17.3382 118.233 17.0773V17.046C118.233 16.7016 118.151 16.4251 117.988 16.2164C117.838 15.9973 117.518 15.7886 117.027 15.5903C116.537 15.3816 115.788 15.225 114.779 15.1207C113.785 15.0163 112.49 14.9433 110.896 14.9015L105.133 14.7763C94.941 14.5676 89.8449 12.1727 89.8449 7.59165V7.30989C89.8449 6.48553 89.9949 5.73419 90.2947 5.05588C90.608 4.3776 91.1667 3.72017 91.9707 3.08362C92.788 2.43664 93.8509 1.89922 95.159 1.47138C96.4804 1.0331 98.204 0.683516 100.33 0.422632C102.469 0.161752 104.949 0.031311 107.769 0.031311H111.489C124.106 0.031311 130.414 2.54099 130.414 7.56035V7.81081H117.477C117.45 7.59165 117.388 7.39338 117.293 7.21598C117.211 7.02813 117.014 6.80901 116.7 6.55855C116.387 6.30813 115.978 6.0994 115.474 5.93246C114.97 5.75503 114.241 5.60373 113.287 5.47852C112.334 5.35327 111.216 5.29067 109.936 5.29067H109.527C108.314 5.29067 107.279 5.32722 106.42 5.40024C105.562 5.46285 104.894 5.54634 104.417 5.6507C103.94 5.74461 103.566 5.87507 103.293 6.04201C103.021 6.19855 102.844 6.35507 102.762 6.51162C102.694 6.65771 102.659 6.8351 102.659 7.0438V7.0751C102.659 7.33598 102.741 7.56556 102.905 7.76384C103.068 7.95165 103.375 8.13429 103.825 8.31169C104.288 8.48908 104.983 8.62996 105.909 8.73429C106.849 8.82824 108.028 8.88563 109.445 8.90648L115.045 9.00042C120.931 9.12563 125.141 9.75176 127.676 10.8788C130.223 11.9953 131.498 13.7641 131.498 16.1851V16.639C131.498 17.5156 131.354 18.3139 131.068 19.0339C130.796 19.7539 130.237 20.4844 129.392 21.2253C128.561 21.9558 127.458 22.5714 126.082 23.0724C124.705 23.5628 122.839 23.9646 120.481 24.2776C118.124 24.5907 115.365 24.7472 112.204 24.7472Z" fill="white"/>
<path d="M71.5939 14.4789L66.3617 6.27683L61.2523 14.4789H71.5939ZM77.8276 24.2933L75.3953 20.4427H57.6146L55.2232 24.2933H43.165L58.5752 0.438293H74.5575L90.8464 24.2933H77.8276Z" fill="white"/>
<path d="M23.6466 24.7472H22.0116C19.3683 24.7472 16.9566 24.6011 14.7766 24.3089C12.5965 24.0167 10.7571 23.6358 9.25836 23.1663C7.77319 22.6967 6.45837 22.1227 5.31386 21.4444C4.18293 20.7662 3.28368 20.0774 2.61605 19.3783C1.96203 18.6791 1.43065 17.9225 1.02189 17.1086C0.613135 16.2842 0.340631 15.5329 0.204379 14.8546C0.0681261 14.1763 0 13.4771 0 12.7571V11.8179C0 11.2649 0.0340631 10.7326 0.102189 10.2213C0.183941 9.69958 0.327006 9.12563 0.531386 8.49951C0.749387 7.87338 1.02871 7.2838 1.36934 6.73074C1.72359 6.17768 2.19366 5.60894 2.77955 5.02458C3.37906 4.44021 4.06712 3.90799 4.84376 3.42798C5.62041 2.94796 6.56737 2.49402 7.68464 2.06618C8.80192 1.6279 10.035 1.26267 11.3839 0.970479C12.7464 0.667856 14.3337 0.433063 16.1459 0.266099C17.9581 0.0886996 19.9133 0 22.0116 0H23.6466C26.249 0 28.6266 0.125223 30.7794 0.375669C32.9458 0.626116 34.758 0.954824 36.2158 1.3618C37.6875 1.76877 38.9818 2.25923 40.099 2.83317C41.23 3.39667 42.1158 3.9706 42.756 4.555C43.4101 5.12891 43.9346 5.74461 44.3297 6.40204C44.7386 7.04901 45.0042 7.62817 45.127 8.13951C45.2631 8.64039 45.3312 9.14127 45.3312 9.64218V10.0648H32.9867C32.9186 9.88739 32.8573 9.75173 32.8028 9.65782C32.7619 9.55349 32.6325 9.36042 32.4144 9.07866C32.2101 8.78648 31.9716 8.54127 31.6991 8.34299C31.4266 8.14472 31.0179 7.91514 30.4728 7.65426C29.9415 7.38292 29.3419 7.16901 28.6743 7.0125C28.0067 6.84553 27.1551 6.70465 26.1196 6.58986C25.0977 6.46465 23.9668 6.40204 22.7269 6.40204C21.5279 6.40204 20.4311 6.45944 19.4364 6.57423C18.4554 6.68898 17.6106 6.84553 16.9021 7.0438C16.1936 7.24208 15.5668 7.48729 15.0218 7.77947C14.4768 8.06123 14.034 8.35863 13.6934 8.67169C13.3664 8.98475 13.0939 9.33433 12.8758 9.72042C12.6578 10.1065 12.508 10.4822 12.4262 10.8474C12.3445 11.2023 12.3036 11.5831 12.3036 11.9901V12.3658C12.3036 12.8249 12.3717 13.2736 12.508 13.7119C12.6442 14.1398 12.8554 14.5833 13.1415 15.0424C13.4413 15.5015 13.8569 15.9242 14.3882 16.3103C14.9333 16.686 15.5736 17.0251 16.3094 17.3277C17.0588 17.6304 17.9853 17.8704 19.089 18.0478C20.1926 18.2147 21.4189 18.2982 22.7678 18.2982C24.0213 18.2982 25.1658 18.2356 26.2013 18.1104C27.2505 17.9747 28.1089 17.813 28.7765 17.6251C29.4578 17.4373 30.0641 17.2025 30.5955 16.9208C31.1405 16.639 31.5492 16.3886 31.8217 16.1694C32.0942 15.9399 32.3259 15.679 32.5166 15.3868C32.721 15.0946 32.8437 14.8911 32.8845 14.7763C32.939 14.6615 32.9867 14.5311 33.0276 14.385H45.3312V14.9015C45.3312 15.4024 45.2631 15.9138 45.127 16.4355C44.9904 16.9573 44.7181 17.5521 44.3093 18.22C43.9004 18.8774 43.3691 19.5035 42.7151 20.0983C42.0611 20.6827 41.1686 21.267 40.0376 21.8514C38.9204 22.4254 37.6261 22.921 36.1544 23.3384C34.6967 23.7558 32.8913 24.095 30.7385 24.3559C28.5994 24.6168 26.2354 24.7472 23.6466 24.7472Z" fill="white"/>
</g>
<defs>
<clipPath id="clip0_339_68">
<rect width="351" height="25" fill="white"/>
</clipPath>
</defs>
</svg>
